<?xml version="1.0" encoding="UTF-8" standalone="no"?>
<!-- Created with Inkscape (http://www.inkscape.org/) -->

<svg
   xmlns:dc="http://purl.org/dc/elements/1.1/"
   xmlns:cc="http://creativecommons.org/ns#"
   xmlns:rdf="http://www.w3.org/1999/02/22-rdf-syntax-ns#"
   xmlns:svg="http://www.w3.org/2000/svg"
   xmlns="http://www.w3.org/2000/svg"
   xmlns:sodipodi="http://sodipodi.sourceforge.net/DTD/sodipodi-0.dtd"
   xmlns:inkscape="http://www.inkscape.org/namespaces/inkscape"
   width="523.71796mm"
   height="132.85088mm"
   viewBox="0 0 523.71796 132.85088"
   version="1.1"
   id="svg8"
   inkscape:version="0.92.5 (2060ec1f9f, 2020-04-08)"
   sodipodi:docname="said-log.svg"
   inkscape:export-filename="/home/jesimar/Ãrea de Trabalho/said-log.png"
   inkscape:export-xdpi="9.750783"
   inkscape:export-ydpi="9.750783">
  <defs
     id="defs2" />
  <sodipodi:namedview
     id="base"
     pagecolor="#ffffff"
     bordercolor="#666666"
     borderopacity="1.0"
     inkscape:pageopacity="0.0"
     inkscape:pageshadow="2"
     inkscape:zoom="0.49497475"
     inkscape:cx="647.51558"
     inkscape:cy="-42.546331"
     inkscape:document-units="mm"
     inkscape:current-layer="layer1"
     showgrid="false"
     fit-margin-top="0"
     fit-margin-left="0"
     fit-margin-right="0"
     fit-margin-bottom="0"
     inkscape:window-width="1854"
     inkscape:window-height="1016"
     inkscape:window-x="66"
     inkscape:window-y="27"
     inkscape:window-maximized="1" />
  <metadata
     id="metadata5">
    <rdf:RDF>
      <cc:Work
         rdf:about="">
        <dc:format>image/svg+xml</dc:format>
        <dc:type
           rdf:resource="http://purl.org/dc/dcmitype/StillImage" />
        <dc:title></dc:title>
      </cc:Work>
    </rdf:RDF>
  </metadata>
  <g
     inkscape:label="Camada 1"
     inkscape:groupmode="layer"
     id="layer1"
     transform="translate(372.62527,-86.585135)">
    <path
       inkscape:connector-curvature="0"
       style="fill:#abd7e0;stroke-width:0.14436348"
       d="m 124.63599,219.34693 -0.8662,-0.43309 c -0.57744,-0.57746 -0.72181,-1.01054 -0.72181,-2.88727 l -0.14436,-2.02109 c 0,-0.28873 -0.72181,-0.28873 -6.35198,-0.28873 -5.77455,0 -6.49636,0 -6.49636,0.28873 l -0.14437,1.73237 c 0,1.588 0,1.73236 -0.28873,2.16545 -0.43308,0.57745 -1.1549,1.01054 -1.87672,1.01054 -0.72181,0 -1.44363,-0.43309 -1.87673,-1.01054 -0.28872,-0.43309 -0.28872,-0.57745 -0.28872,-2.16545 l -0.14436,-1.73237 c 0,-0.28873 -0.72182,-0.28873 -6.20763,-0.28873 -5.630176,0 -6.351993,0 -6.351993,0.28873 l -0.144369,1.87673 c 0,1.588 0,1.73236 -0.288729,2.16545 -0.433089,0.57746 -1.154907,1.01054 -1.876717,1.01054 -0.721818,0 -1.443643,-0.43308 -1.876733,-1.01054 -0.288721,-0.43309 -0.288721,-0.57745 -0.288721,-2.16545 l -0.144368,-1.87673 c 0,-0.28873 -0.72181,-0.28873 -6.351994,-0.28873 -5.774541,0 -6.496354,0 -6.496354,0.28873 l -0.144367,1.73237 c 0,1.44363 0,1.73236 -0.288724,2.16545 l -0.866181,0.72182 c -0.86618,0.57745 -2.165453,0.28872 -2.887271,-0.72182 -0.288727,-0.43309 -0.288727,-0.72182 -0.288727,-2.16545 l -0.144362,-1.73237 c 0,-0.28873 -0.721818,-0.28873 -6.351994,-0.28873 -5.630177,0 -6.351993,0 -6.351993,0.28873 l -0.144363,2.02109 c 0,1.73237 0,1.87673 -0.288728,2.30981 -1.010545,1.29927 -2.742906,1.29927 -3.75345,0 -0.288727,-0.43308 -0.288727,-0.57744 -0.288727,-2.30981 l -0.144363,-2.02109 c 0,-0.28873 -0.721818,-0.28873 -6.351995,-0.28873 -5.630176,0 -6.351993,0 -6.351993,0.28873 l -0.144363,1.87673 c 0,1.588 0,1.87673 -0.288727,2.30982 -0.577454,1.01054 -2.021088,1.29926 -3.031633,0.72181 -0.866181,-0.57746 -1.010546,-1.01054 -1.010546,-3.03163 l -0.144362,-1.87673 c 0,-0.28873 -0.577454,-0.28873 -4.908358,-0.28873 -5.197086,0 -5.341449,0 -6.20763,-0.86618 -1.010544,-0.86617 -1.010544,-0.86617 -1.010544,-6.20762 l -0.144364,-5.05273 -1.876725,-0.14436 c -1.443635,0 -1.732362,0 -2.165453,-0.28873 -1.443634,-1.01054 -1.443634,-2.7429 0,-3.75345 0.433091,-0.28872 0.721818,-0.28872 2.165453,-0.28872 l 1.876725,-0.14437 c 0.288727,-0.28873 0.288727,-12.55961 0,-12.84835 l -2.021088,-0.14436 c -1.587999,0 -1.876727,0 -2.309817,-0.28872 -1.29927,-0.86619 -1.29927,-2.88728 0,-3.75346 0.43309,-0.28872 0.721818,-0.28872 2.309817,-0.28872 l 2.021088,-0.14438 c 0.288727,-0.28871 0.288727,-12.27088 0,-12.55962 l -1.876725,-0.14436 c -1.587999,0 -1.876725,0 -2.309816,-0.28872 -1.299271,-0.86618 -1.299271,-2.88727 0,-3.75345 0.433091,-0.28873 0.721817,-0.28873 2.309816,-0.28873 l 1.876725,-0.14436 c 0.288727,-0.28873 0.288727,-12.2709 0,-12.55962 l -1.876725,-0.14437 c -1.876725,0 -2.309816,-0.14435 -2.887269,-1.01055 -0.433092,-0.57745 -0.433092,-1.73235 0,-2.3098 0.577453,-0.86619 1.010544,-1.01056 2.887269,-1.01056 l 1.876725,-0.14436 c 0.288727,-0.28873 0.288727,-12.55962 0,-12.84834 l -1.732362,-0.14438 c -1.732362,0 -2.165453,-0.14436 -2.742906,-1.01053 -0.433091,-0.57746 -0.433091,-1.73237 0,-2.30981 0.577453,-0.8662 1.010544,-1.01055 2.742906,-1.01055 l 1.732362,-0.14436 c 0.288727,-0.28874 0.288727,-12.41527 0,-12.70399 l -1.732362,-0.14437 c -1.587998,0 -2.021088,-0.14436 -2.598543,-1.01055 -0.433089,-0.57745 -0.433089,-1.73236 0,-2.30981 0.577455,-0.86618 1.010545,-1.01054 2.598543,-1.01054 l 1.732362,-0.14437 0.144364,-10.827248 c 0,-10.394176 0,-10.6829 0.288726,-11.26036 0.433091,-0.721814 1.154909,-1.443635 2.021088,-1.587997 1.443635,-0.433098 3.175998,0.721809 3.464725,2.309819 l 0.144362,59.766476 v 59.04467 h 5.918904 l 6.063267,-0.14438 v -15.15815 l 0.144362,-16.31308 c 0,-0.86618 0.433091,-1.44363 1.010545,-1.87672 l 5.341449,-0.14437 h 4.908358 l 0.577455,0.28873 c 0.866181,0.43308 1.29927,1.1549 1.29927,2.02109 l 0.144365,16.16871 0.144363,15.30253 h 9.816717 v -9.52799 l 0.144363,-10.39418 c 0,-1.01053 0.43309,-1.58799 1.154908,-2.02108 0.433091,-0.28873 0.721818,-0.28873 5.197085,-0.28873 l 5.197083,0.14436 c 0.72182,0.43309 1.15491,1.01054 1.15491,1.87673 l 0.144362,10.53853 v 9.67236 h 9.961082 v -18.1898 l 0.144368,-18.91162 c 0,-1.1549 0.433089,-1.73236 1.154907,-2.16546 0.433089,-0.28871 0.721819,-0.28871 5.197079,-0.28871 l 5.197086,0.14436 c 0.57746,0.43309 1.01055,1.01054 1.15492,1.73235 l 0.14436,19.05599 v 18.47853 h 10.2498 v -26.8516 l 0.14435,-27.7178 c 0,-1.01054 0.4331,-1.58799 1.15492,-2.02109 0.43309,-0.28874 0.72182,-0.28874 5.19709,-0.28874 l 5.19708,0.14438 c 0.72182,0.43308 1.1549,1.01054 1.1549,1.87673 l 0.14438,27.86214 0.14436,26.99598 h 12.12652 l 12.2709,0.14436 0.57745,0.28872 c 1.87673,1.15491 2.02109,3.75346 0.14437,4.90837 l -0.57745,0.57744 h -10.82727 l -10.82726,0.14437 -0.14436,2.16545 c 0,1.73237 0,1.87673 -0.28874,2.30981 -0.72181,0.86619 -1.58799,1.29927 -2.45416,1.01055 z M 47.401525,164.34445 C 46.102253,163.767 36.86299,158.42555 36.4299,157.99245 l -0.721818,-1.29927 c -0.288726,-0.72182 -0.288726,-0.72182 0,-1.29927 0.577453,-1.44364 1.443636,-2.16545 2.742906,-2.16545 0.866181,0 0.721819,-0.14436 5.485813,2.7429 l 4.042177,2.16546 c 0.144364,0 3.897815,-3.60909 8.22872,-8.08436 5.630175,-5.63017 8.373081,-8.08435 8.661808,-8.22872 0.721818,-0.28872 1.732362,-0.28872 2.45418,0 l 5.630175,5.19709 5.052724,5.05272 4.186539,-4.04218 c 4.475269,-4.47526 4.61963,-4.61963 5.918905,-4.47526 1.299268,0.28872 2.454183,1.58799 2.454183,2.88727 0,1.15491 -0.433089,1.58799 -5.774544,7.0738 l -5.485815,5.34145 c -0.721818,0.28873 -1.876725,0.28873 -2.59854,-0.14436 -0.288728,-0.28872 -2.887271,-2.59855 -5.485814,-5.34145 l -5.052721,-4.90836 c -0.144364,0 -3.753452,3.46473 -7.939992,7.79564 -8.228718,8.22871 -8.517446,8.37307 -9.672354,8.37307 z m 60.488305,-23.24253 -8.37309,-2.16544 -1.29927,1.01053 c -1.587993,1.58801 -2.7429,2.0211 -4.186536,1.44364 -1.154907,-0.57744 -1.876733,-2.02109 -1.443636,-3.32036 a 22.376341,22.376341 0 0 1 4.619632,-4.90836 c 0.72181,-0.43309 1.73236,-0.57745 2.59854,-0.14436 a 227.08376,227.08376 0 0 0 15.15816,4.18654 c 0.28873,0 0.72183,-0.28872 1.73236,-1.44363 2.0211,-2.02109 2.59855,-2.30981 3.89782,-2.02109 1.44363,0.43308 2.59854,2.16545 2.16545,3.46472 -0.14436,0.72182 -0.72182,1.58799 -1.01054,1.58799 l -2.16546,2.02111 c -2.02109,2.16544 -2.45417,2.45417 -3.46472,2.45417 z m 16.89052,-8.22871 c -1.44364,-0.72183 -2.02109,-2.59854 -1.29927,-3.89781 1.01055,-1.87673 3.32035,-2.16547 4.76399,-0.57746 0.43309,0.28872 0.86619,1.44363 0.86619,1.87673 0,1.01054 -0.86619,2.30981 -1.87673,2.7429 -0.72182,0.28873 -1.73237,0.14436 -2.45418,-0.14436 z m 6.92944,-6.20763 c -0.72182,-0.28873 -1.58799,-1.29928 -1.87672,-2.0211 -0.14437,-0.72181 -0.14437,-1.01053 0.14436,-1.73235 0.14437,-0.57746 1.15491,-1.73237 6.06327,-6.64072 4.04218,-3.89781 6.20763,-6.06327 6.64072,-6.20764 1.01053,-0.57744 2.45419,-0.28872 3.32036,0.57746 0.72182,0.86618 0.86618,2.16546 0.43308,3.32036 l -6.35198,6.49636 c -5.05273,5.05273 -6.06327,6.06326 -6.49636,6.20763 z"
       id="path4" />
    <path
       inkscape:connector-curvature="0"
       style="fill:#82a7af;stroke-width:0.14436348"
       d="m 124.63599,219.0582 -0.72182,-0.14436 -0.28874,-0.57746 c -0.43308,-0.43308 -0.43308,-0.57744 -0.43308,-2.45417 l -0.14437,-2.02109 c 0,-0.28873 -0.72181,-0.28873 -6.49634,-0.28873 -5.91891,0 -6.64073,0 -6.64073,0.28873 l -0.14436,1.73236 c 0,1.44365 0,1.73237 -0.28873,2.16546 -0.86618,1.29926 -2.59853,1.29926 -3.46473,0 -0.28871,-0.43309 -0.28871,-0.72181 -0.28871,-2.16546 l -0.14437,-1.73236 c 0,-0.28873 -0.72181,-0.28873 -6.35199,-0.28873 -5.774543,0 -6.496362,0 -6.496362,0.28873 l -0.14436,1.87673 c 0,1.588 0,1.73236 -0.28873,2.16545 -0.866177,1.29927 -2.598542,1.29927 -3.464721,0 -0.288729,-0.43309 -0.288729,-0.72182 -0.288729,-2.16545 l -0.14436,-1.87673 c 0,-0.28873 -0.721818,-0.28873 -6.496362,-0.28873 -5.918902,0 -6.640721,0 -6.640721,0.28873 l -0.144362,1.73236 c 0,1.15491 0,1.73237 -0.288728,2.16546 -0.577453,1.29926 -2.887268,1.29926 -3.464722,0 -0.288727,-0.43309 -0.288727,-1.01055 -0.288727,-2.16546 l -0.144364,-1.73236 c 0,-0.28873 -0.721817,-0.28873 -6.496356,-0.28873 -5.774539,0 -6.496356,0 -6.496356,0.28873 l -0.144365,2.02109 c 0,1.588 0,1.87673 -0.288726,2.30982 -0.866182,1.29926 -2.598543,1.29926 -3.464724,0 -0.288727,-0.43309 -0.288727,-0.57746 -0.288727,-2.30982 l -0.144363,-2.02109 c 0,-0.28873 -0.721818,-0.28873 -6.496358,-0.28873 h -6.496356 v 0.28873 l -0.144364,2.16545 c 0,1.73237 -0.144363,1.87673 -0.433089,2.30981 -1.010545,1.01055 -2.165454,1.01055 -3.175998,0 -0.288727,-0.43308 -0.43309,-0.57744 -0.43309,-2.30981 l -0.144365,-2.16545 v -0.28873 h -4.908357 c -4.908358,0 -5.052723,0 -5.630176,-0.28873 l -1.010544,-1.01054 -0.433091,-0.57744 -0.144363,-5.05273 -0.144363,-5.19709 -1.876726,-0.14436 c -1.154907,0 -1.732362,0 -2.165453,-0.28872 -1.299271,-0.57746 -1.299271,-2.88728 0,-3.46473 0.433091,-0.28873 1.010546,-0.28873 2.165453,-0.28873 l 1.876726,-0.14436 c 0.288726,-0.28874 0.288726,-12.84836 0,-13.13708 l -2.165452,-0.14436 c -1.876727,0 -2.02109,-0.14436 -2.45418,-0.4331 -1.010544,-1.01054 -1.010544,-2.16545 0,-3.176 0.43309,-0.28872 0.577453,-0.43308 2.45418,-0.43308 l 2.165452,-0.14436 c 0.288726,-0.28873 0.288726,-12.55962 0,-12.84836 l -2.165452,-0.14436 c -1.732362,0 -1.876727,-0.14436 -2.309817,-0.43308 -1.010544,-1.01056 -1.010544,-2.16546 0,-3.17601 0.43309,-0.28872 0.577455,-0.43309 2.309817,-0.43309 l 2.165452,-0.14436 c 0.288726,-0.28873 0.288726,-12.55962 0,-12.84835 l -1.876726,-0.14435 c -1.587998,0 -1.876725,0 -2.309816,-0.28874 -1.154908,-0.86618 -1.154908,-2.59854 0,-3.46472 0.433091,-0.28873 0.721818,-0.28873 2.309816,-0.28873 l 1.876726,-0.14437 c 0.288726,-0.28872 0.288726,-12.84834 0,-13.13708 l -1.732362,-0.14436 c -1.443636,0 -1.732362,0 -2.165452,-0.28872 -1.154909,-0.86618 -1.154909,-2.59855 0,-3.46472 0.43309,-0.28874 0.721816,-0.28874 2.165452,-0.28874 l 1.732362,-0.14435 c 0.288726,-0.28873 0.288726,-12.70399 0,-12.99272 l -1.732362,-0.14436 c -1.299271,0 -1.587999,0 -2.021089,-0.28873 -1.154907,-0.86617 -1.154907,-2.59854 0,-3.46472 0.43309,-0.28873 0.721818,-0.28873 2.021089,-0.28873 l 1.732362,-0.14436 0.144363,-10.827256 c 0,-10.6829 0,-10.6829 0.288726,-11.404722 0.866183,-1.876721 3.609087,-2.021095 4.763996,-0.144362 l 0.43309,0.57746 v 59.47774 l 0.144364,59.62213 6.207629,0.14436 h 6.063266 v -16.31308 c 0.144364,-18.04542 0,-16.74617 1.010545,-17.32361 0.43309,-0.28873 0.577454,-0.28873 5.341449,-0.28873 h 4.908358 l 0.721818,0.43309 0.866181,0.72182 c 0.144363,0.28872 0.288726,1.01054 0.288726,16.6018 l 0.144365,16.16871 H 65.44696 v -10.53854 c 0.144364,-11.69344 0,-10.97162 1.010545,-11.54908 0.43309,-0.28873 0.866181,-0.28873 5.341448,-0.28873 5.197083,0 5.197083,0 5.918903,0.72182 l 0.43309,0.4331 v 10.53853 l 0.144362,10.6829 h 33.347952 v -27.86216 c 0,-26.41851 0.14438,-27.86214 0.28874,-28.15087 l 0.72182,-0.72182 c 0.4331,-0.28874 0.86618,-0.28874 5.34145,-0.28874 5.19708,0 5.19708,0 5.9189,0.72184 l 0.43308,0.43308 v 27.86215 l 0.14438,28.00652 h 12.12653 c 11.98217,0 12.27088,0.14436 12.70398,0.43308 1.73236,0.72183 2.16545,2.88728 1.01054,4.18655 -1.01054,1.01054 -0.43308,1.01054 -12.2709,1.01054 -9.52798,0 -10.68289,0 -10.68289,0.28873 l -0.14436,2.02109 c 0,1.73236 0,2.02109 -0.28873,2.45417 -0.57746,0.72182 -1.44364,1.15491 -2.45417,0.72182 z M 47.401525,164.34445 c -1.154909,-0.57745 -10.538535,-5.9189 -10.827262,-6.352 -1.876725,-1.73235 -0.721817,-4.76399 1.876725,-4.76399 0.866181,0 0.721819,-0.14436 5.485813,2.7429 l 4.042177,2.16546 c 0.144364,0 3.897815,-3.60909 8.22872,-8.08436 5.630175,-5.63017 8.373081,-8.08435 8.661808,-8.22872 0.721818,-0.28872 1.732362,-0.28872 2.45418,0 l 5.630175,5.19709 5.052724,5.05272 4.186539,-4.04218 c 4.475269,-4.47526 4.61963,-4.61963 5.918905,-4.47526 1.299268,0.28872 2.454183,1.58799 2.454183,2.88727 0,1.15491 -0.433089,1.58799 -5.774544,7.0738 l -5.485815,5.34145 c -0.721818,0.28873 -1.876725,0.28873 -2.59854,-0.14436 -0.288728,-0.28872 -2.887271,-2.59855 -5.485814,-5.34145 l -5.052721,-4.90836 c -0.144364,0 -3.753452,3.46473 -7.939992,7.79564 -8.228718,8.22871 -8.517446,8.37307 -9.672354,8.37307 z m 60.488305,-23.24253 -8.37309,-2.16544 -1.29927,1.01053 c -1.587993,1.58801 -2.7429,2.0211 -4.186536,1.44364 -1.154907,-0.57744 -1.876733,-2.02109 -1.443636,-3.32036 a 22.376341,22.376341 0 0 1 4.619632,-4.90836 c 0.72181,-0.43309 1.73236,-0.57745 2.59854,-0.14436 a 227.08376,227.08376 0 0 0 15.15816,4.18654 l 1.87672,-1.44363 c 1.58801,-1.58801 2.0211,-1.87673 3.17601,-1.87673 1.44362,0 2.59854,1.15491 2.59854,2.7429 0,1.01055 -0.28873,1.44364 -2.88727,4.04218 -2.16546,2.30982 -2.59854,2.59855 -3.60909,2.59855 z m 17.17925,-8.37308 c -1.01055,-0.43308 -1.73237,-1.44363 -1.73237,-2.45417 0,-0.57746 0.28872,-1.44363 0.72182,-1.87673 1.73237,-1.73236 4.76399,-0.57745 4.76399,1.87673 0,0.72181 -0.28872,1.58799 -0.86617,2.02109 -0.72182,0.72181 -2.16545,0.86617 -3.03164,0.43308 z m 6.78508,-6.20763 c -0.86619,-0.28872 -1.73236,-1.29927 -1.87673,-2.02109 -0.14436,-0.72181 -0.14436,-1.29927 0.28873,-2.02108 0.43309,-0.72182 11.83781,-12.12654 12.41526,-12.2709 1.15491,-0.57745 2.16545,-0.28873 3.03163,0.43309 0.86618,0.86618 1.15491,2.02108 0.57745,3.17599 -0.14436,0.57746 -11.54907,11.98218 -12.27089,12.41527 -0.72182,0.43309 -1.58801,0.43309 -2.30982,0.28872 z"
       id="path6" />
    <path
       inkscape:connector-curvature="0"
       style="fill:#8d8d8d;stroke-width:0.14436348"
       d="m 124.34725,218.91384 c -1.01054,-0.43309 -1.01054,-0.72181 -1.1549,-3.17599 0,-2.0211 0,-2.16546 -0.28873,-2.16546 h -12.84834 c -0.28873,0 -0.28873,0.28873 -0.28873,1.73237 0,1.87672 -0.14437,2.30981 -0.86619,2.88727 -0.57744,0.57745 -1.73235,0.57745 -2.30981,0 -0.72182,-0.57746 -0.86617,-1.01055 -0.86617,-2.88727 0,-1.58801 0,-1.73237 -0.28873,-1.73237 H 92.876027 c -0.288729,0 -0.288729,0.14436 -0.288729,1.73237 0,2.02109 -0.144369,2.45418 -0.866187,3.03162 -1.010539,0.86619 -2.454175,0.4331 -3.031632,-0.86617 l -0.144361,-2.16545 c 0,-1.44364 0,-1.73237 -0.288728,-1.73237 H 75.408042 c -0.288729,0 -0.288729,0.14436 -0.288729,1.73237 0,1.87672 -0.144362,2.59854 -0.866181,3.03162 -1.010542,0.72182 -2.309815,0.4331 -2.887269,-0.72181 -0.288727,-0.57744 -0.288727,-0.86618 -0.288727,-2.30981 0,-1.58801 0,-1.73237 -0.288726,-1.73237 H 58.084423 c -0.288728,0 -0.288728,0.28873 -0.288728,1.87673 0,2.16545 -0.144363,2.59854 -0.866181,3.176 -0.577453,0.57745 -1.732362,0.57745 -2.309815,0 -0.721817,-0.57746 -0.866181,-1.01055 -0.866181,-3.176 0,-1.588 0,-1.87673 -0.288726,-1.87673 H 40.760804 c -0.288727,0 -0.288727,0.14436 -0.288727,1.87673 0,2.30982 -0.144363,2.88726 -1.154908,3.32036 -0.866181,0.43309 -0.866181,0.43309 -1.732361,0 -1.010545,-0.4331 -1.154908,-1.01054 -1.154908,-3.32036 v -1.87673 l -5.341449,-0.14436 h -5.197085 l -0.577453,-0.57746 c -1.154909,-0.86617 -1.010546,-0.72181 -1.154909,-6.35198 v -5.05273 l -1.876725,-0.14436 c -2.021089,-0.14437 -2.598543,-0.28872 -3.031633,-1.15491 -0.288728,-0.57746 -0.288728,-1.15492 0,-1.73236 0.43309,-0.86618 1.010544,-1.01055 3.031633,-1.15491 h 1.876725 v -13.28144 l -2.021089,-0.14436 c -2.309816,-0.14436 -2.742906,-0.28873 -3.175997,-1.15491 -0.43309,-0.86618 -0.43309,-0.86618 0,-1.73235 0.433091,-0.8662 0.866181,-1.01056 3.175997,-1.15492 h 2.021089 v -12.99272 l -1.876725,-0.14436 c -2.309817,-0.14436 -2.742907,-0.28873 -3.175996,-1.15491 -0.433092,-0.86618 -0.433092,-0.86618 0,-1.73235 0.433089,-0.8662 0.866179,-1.01055 3.175996,-1.15492 h 1.876725 v -12.99271 l -2.021089,-0.14435 c -1.587998,0 -1.876725,-0.14437 -2.309816,-0.4331 -1.154908,-0.86619 -1.154908,-2.45418 0.144363,-3.32036 0.288728,-0.14436 0.721818,-0.28873 2.165453,-0.28873 h 2.021089 v -13.28145 l -1.876725,-0.14436 c -1.443636,0 -1.732362,-0.14436 -2.165452,-0.43308 -1.154909,-0.86619 -1.154909,-2.45419 0.144363,-3.32036 0.288727,-0.14437 0.721818,-0.28874 2.021089,-0.28874 h 1.876725 v -13.13707 l -1.732362,-0.14436 c -1.443634,0 -1.732362,-0.14437 -2.165452,-0.43309 -1.154907,-0.86619 -1.154907,-2.45418 0.144363,-3.32036 0.288727,-0.14436 0.721818,-0.28873 2.021089,-0.28873 h 1.732362 V 99.813976 c 0,-10.6829 0.144363,-10.971624 0.433091,-11.404722 0.288727,-0.721814 1.154907,-1.443635 2.021088,-1.587997 1.010545,-0.144362 2.165452,0.577447 2.742906,1.443635 0.144364,0.433098 0.288727,4.186543 0.288727,60.199568 l 0.144364,59.62212 6.207629,-0.14436 a 2585.1169,2585.1169 0 0 1 35.802144,0 157745.98,157745.98 0 0 0 64.819207,0.14436 c 13.71452,0.14436 12.84834,0 13.57016,1.01055 1.15491,1.29927 0.86618,3.17599 -0.57746,4.04218 l -0.72182,0.28872 h -10.53853 l -10.82726,0.14436 c -0.28872,0 -0.28872,0.14436 -0.28872,2.16546 0,1.73236 -0.14438,2.16545 -0.28873,2.45418 -0.57746,0.86617 -1.73236,1.1549 -2.59855,0.72181 z M 47.401525,164.34445 c -1.154909,-0.57745 -10.538535,-5.9189 -10.827262,-6.352 -0.721817,-0.57746 -0.866181,-1.15491 -0.866181,-2.16545 0,-0.72182 0.144364,-1.01055 0.433091,-1.44364 0.577454,-0.72181 1.443635,-1.1549 2.309815,-1.1549 0.866181,0 0.721819,-0.14436 5.485813,2.7429 l 4.042177,2.16546 c 0.144364,0 3.897815,-3.60909 8.22872,-8.08436 5.630175,-5.63017 8.373081,-8.08435 8.661808,-8.22872 0.721818,-0.28872 1.732362,-0.28872 2.45418,0 l 5.630175,5.19709 5.052724,5.05272 4.186539,-4.04218 c 4.475269,-4.47526 4.61963,-4.61963 5.918905,-4.47526 1.299268,0.28872 2.454183,1.58799 2.454183,2.88727 0,1.15491 -0.433089,1.58799 -5.774544,7.0738 l -5.485815,5.34145 c -0.721818,0.28873 -1.876725,0.28873 -2.59854,-0.14436 -0.288728,-0.28872 -2.887271,-2.59855 -5.485814,-5.34145 l -5.052721,-4.90836 c -0.144364,0 -3.753452,3.46473 -7.939992,7.79564 -8.228718,8.22871 -8.517446,8.37307 -9.672354,8.37307 z m 60.488305,-23.24253 -8.37309,-2.16544 -1.29927,1.01053 c -1.587993,1.58801 -2.7429,2.0211 -4.186536,1.44364 -1.154907,-0.57744 -1.876733,-2.02109 -1.443636,-3.32036 a 22.376341,22.376341 0 0 1 4.619632,-4.90836 c 0.72181,-0.43309 1.73236,-0.57745 2.59854,-0.14436 a 227.08376,227.08376 0 0 0 15.15816,4.18654 c 0.14437,0 0.72183,-0.28872 1.58801,-1.15491 1.58799,-1.58799 2.02108,-1.87673 2.7429,-2.02109 1.73237,-0.43308 3.46472,1.15492 3.32036,2.88728 -0.14437,0.86618 -0.72182,1.58799 -3.03164,3.89782 -2.02109,2.16544 -2.45417,2.45417 -3.46472,2.45417 z m 17.03488,-8.37308 c -1.73236,-1.01054 -2.02109,-3.17599 -0.57746,-4.47526 0.72183,-0.43309 1.588,-0.72182 2.30982,-0.57745 1.15492,0.14436 2.16545,1.44362 2.16545,2.59854 0,1.1549 -0.86617,2.30981 -2.02109,2.59854 -0.72181,0.14436 -1.01053,0.14436 -1.87672,-0.14437 z m 6.49636,-6.49635 c -1.15491,-0.57746 -1.73237,-2.02109 -1.29927,-3.32036 0.28873,-0.57746 1.58799,-1.87673 6.352,-6.64072 5.63017,-5.63018 6.06326,-6.06327 6.6407,-6.20764 0.86619,-0.14436 1.29928,-0.14436 2.16546,0.4331 0.86618,0.43309 1.44364,1.73236 1.1549,2.88726 -0.14436,0.57746 -0.57744,1.01055 -6.06326,6.64072 -4.04218,4.04218 -6.20763,6.06327 -6.64072,6.20764 -0.72182,0.43309 -1.588,0.28872 -2.30981,0 z"
       id="path8" />
    <path
       inkscape:connector-curvature="0"
       style="fill:#7d8c90;stroke-width:0.14436348"
       d="m 124.34725,218.76948 c -0.86617,-0.4331 -0.86617,-0.72182 -1.01054,-3.03163 v -2.16546 h -13.57016 l -0.14437,1.87673 -0.28873,2.16545 c -0.72181,1.15491 -2.45416,1.15491 -3.17598,0 l -0.28874,-2.16545 v -1.87673 H 92.587298 l -0.144369,1.87673 -0.288728,2.30982 c -0.72181,1.1549 -2.454175,1.1549 -3.175993,0 l -0.288729,-2.30982 v -1.87673 H 75.119313 l -0.144362,1.87673 c -0.144366,1.87673 -0.144366,2.16545 -0.721819,2.74291 -0.43309,0.28872 -0.577452,0.43309 -1.154907,0.43309 -0.577453,0 -0.721818,-0.14437 -1.154908,-0.43309 -0.577454,-0.57746 -0.577454,-0.86618 -0.721818,-2.74291 v -1.87673 H 57.795695 l -0.144363,2.02109 c 0,1.29927 -0.144363,2.16546 -0.288726,2.45418 -0.721819,1.15491 -2.45418,1.15491 -3.175998,0 -0.144363,-0.28872 -0.288726,-1.15491 -0.288726,-2.45418 v -2.02109 H 40.472077 l -0.144363,2.02109 c -0.144364,2.16546 -0.144364,2.45418 -1.010545,3.03164 -0.721817,0.43308 -1.876724,0.14436 -2.454179,-0.72182 -0.144363,-0.28873 -0.288727,-0.72182 -0.288727,-2.30982 v -2.02109 l -5.052722,-0.14436 c -5.774539,-0.14437 -5.918902,-0.14437 -6.640719,-1.29927 l -0.433092,-0.57746 -0.144363,-5.19709 v -5.05271 l -1.876725,-0.14437 c -2.021089,-0.14435 -2.309815,-0.14435 -2.88727,-0.72181 -0.288726,-0.4331 -0.288726,-0.57745 -0.288726,-1.15491 0,-0.57745 0,-0.72182 0.288726,-1.15491 0.577455,-0.57745 0.866181,-0.57745 2.88727,-0.72182 h 1.876725 v -13.57016 l -2.165452,-0.14436 c -1.587998,0 -2.021088,-0.14437 -2.309816,-0.28874 -1.154908,-0.86618 -1.154908,-2.30981 0,-3.176 0.288728,-0.14436 0.721818,-0.28872 2.309816,-0.28872 h 2.165452 v -13.28144 l -2.021088,-0.14436 c -1.587999,0 -2.021089,-0.14437 -2.309817,-0.28872 -1.154907,-0.86619 -1.154907,-2.30982 0,-3.17601 0.288728,-0.14437 0.721818,-0.28872 2.309817,-0.28872 h 2.021088 v -13.28143 l -2.021088,-0.14437 c -2.165452,-0.14437 -2.598543,-0.14437 -2.88727,-1.01055 -0.288726,-0.72181 -0.288726,-1.01055 0,-1.73236 0.288727,-0.86618 0.721818,-0.86618 2.88727,-1.01054 h 2.021088 v -13.57018 l -1.876725,-0.14436 c -2.021089,-0.14436 -2.45418,-0.28872 -2.742906,-1.01054 -0.288727,-0.72181 -0.288727,-1.01055 0,-1.73237 0.288726,-0.72181 0.721817,-0.86617 2.742906,-1.01054 h 1.876725 v -13.4258 l -1.732362,-0.14437 c -2.021088,-0.14436 -2.454178,-0.28872 -2.742906,-1.01053 -0.288727,-0.72182 -0.288727,-1.01056 0,-1.73237 0.288728,-0.72182 0.721818,-0.86618 2.598543,-1.01054 h 1.876725 V 99.813976 c 0,-7.651265 0.144363,-10.971624 0.288728,-11.26036 0.144363,-0.577452 1.010544,-1.299274 1.587998,-1.443635 1.154908,-0.433086 2.454179,0.288723 3.031633,1.299273 l 0.288727,0.721822 v 59.333384 l 0.144363,59.62212 6.351993,0.14436 6.20763,-0.14436 a 86.618091,86.618091 0 0 1 18.189799,0.14436 l 5.197086,-0.14436 c 0.144363,-0.28872 1.154908,-0.28872 6.207629,-0.28872 l 6.207632,0.14436 c 0.288723,0.28872 33.347965,0.28872 33.781055,0 0.43308,-0.28874 12.12653,-0.28874 12.41525,0.14436 l 12.41527,0.14436 h 12.12652 l 0.57746,0.28874 c 1.44364,0.72181 1.87673,2.59854 0.86618,3.89781 -1.01054,1.01054 -0.14436,0.86617 -12.12654,1.01054 l -10.82725,0.14436 -0.14438,2.16546 c -0.14435,2.30981 -0.14435,2.7429 -1.01053,3.03163 -0.72182,0.28872 -1.15491,0.28872 -1.73237,0 z m -76.801362,-54.42503 -10.971625,-6.352 c -0.577454,-0.57746 -0.721817,-1.01054 -0.721817,-2.02109 0,-1.588 1.010544,-2.59854 2.598542,-2.59854 0.721819,0 1.010545,0.14436 5.052722,2.45418 l 4.619632,2.45418 8.373083,-8.08436 c 4.475267,-4.61962 8.373081,-8.22871 8.517444,-8.37308 h 2.165453 l 5.485813,5.34146 5.34145,5.05272 4.3309,-4.04219 c 4.18654,-4.3309 4.475269,-4.47525 5.485816,-4.47525 0.577457,0 1.443635,0.43309 1.876725,1.01053 0.721817,0.72182 0.866186,1.73237 0.433097,2.7429 -0.144369,0.4331 -2.165455,2.59855 -5.485816,5.91891 -4.619636,4.61963 -5.485815,5.34145 -5.918912,5.48581 -0.577449,0.14437 -1.299267,0.14437 -1.87672,-0.28872 l -5.341449,-5.19709 -5.341448,-5.05272 c -0.288728,0 -3.031633,2.74291 -8.228718,7.79562 -5.197086,5.34146 -7.939992,7.94 -8.22872,8.08436 -0.721817,0.28873 -1.587998,0.28873 -2.165452,0.14437 z m 60.343942,-23.38688 -8.37309,-2.16547 c -0.28872,0 -0.57745,0.28874 -1.44363,1.15491 -1.443633,1.44364 -2.45418,1.87673 -3.753456,1.44364 -0.866177,-0.28873 -1.732356,-1.58799 -1.732356,-2.45417 0,-1.01055 0.288729,-1.44363 2.309815,-3.46474 l 2.598547,-2.45417 c 0.72181,-0.14436 1.58799,-0.14436 2.30981,0.14436 a 229.39358,229.39358 0 0 0 15.15816,4.18654 l 1.15491,-0.86618 c 1.44363,-1.29926 2.59855,-2.16545 3.176,-2.30982 1.58799,-0.57744 3.32036,1.01056 3.17599,2.74292 -0.14436,0.86618 -0.72181,1.58799 -2.88727,3.89782 -2.02109,2.02107 -2.45417,2.30981 -3.46472,2.30981 z m 17.32361,-8.37309 c -0.57745,-0.14436 -1.15491,-0.72182 -1.44365,-1.15491 v -2.16545 c 0.4331,-1.01054 1.73237,-1.73236 2.74292,-1.44363 1.1549,0.14435 2.16545,1.29926 2.16545,2.45418 0,0.72181 -0.57745,1.73235 -1.15491,2.16545 -0.72182,0.43309 -1.588,0.57745 -2.30981,0.14436 z m 6.49635,-6.35199 c -1.44363,-0.57746 -1.87672,-2.16546 -1.29926,-3.46473 0.14436,-0.43309 2.16545,-2.59854 6.06327,-6.49635 6.35198,-6.20764 6.49634,-6.352 7.65125,-6.20764 1.01056,0.28873 2.02109,1.29927 2.30981,2.30983 0.14437,1.15491 0,1.29926 -6.20763,7.65125 -3.89781,3.75346 -6.06326,5.91891 -6.49635,6.06327 -0.57744,0.28873 -1.44364,0.43309 -2.16545,0.14437 z"
       id="path10" />
    <path
       inkscape:connector-curvature="0"
       style="fill:#8c897c;stroke-width:0.14436348"
       d="m 124.34725,218.76948 c -0.86617,-0.4331 -0.86617,-0.72182 -1.01054,-3.03163 v -2.16546 h -13.57016 l -0.14437,1.87673 -0.28873,2.16545 c -0.72181,1.15491 -2.45416,1.15491 -3.17598,0 l -0.28874,-2.16545 v -1.87673 H 92.587298 l -0.144369,1.87673 -0.288728,2.30982 c -0.72181,1.1549 -2.454175,1.1549 -3.175993,0 l -0.288729,-2.30982 v -1.87673 H 75.119313 l -0.144362,1.87673 c -0.144366,1.87673 -0.144366,2.16545 -0.721819,2.74291 -0.43309,0.28872 -0.577452,0.43309 -1.154907,0.43309 -0.577453,0 -0.721818,-0.14437 -1.154908,-0.43309 -0.577454,-0.57746 -0.577454,-0.86618 -0.721818,-2.74291 v -1.87673 H 57.795695 l -0.144363,2.02109 c 0,1.29927 -0.144363,2.16546 -0.288726,2.45418 -0.721819,1.15491 -2.45418,1.15491 -3.175998,0 -0.144363,-0.28872 -0.288726,-1.15491 -0.288726,-2.45418 v -2.02109 H 40.472077 l -0.144363,2.02109 c -0.144364,2.16546 -0.144364,2.45418 -1.010545,3.03164 -0.721817,0.43308 -1.876724,0.14436 -2.454179,-0.72182 -0.144363,-0.28873 -0.288727,-0.72182 -0.288727,-2.30982 v -2.02109 l -5.052722,-0.14436 c -5.774539,-0.14437 -5.918902,-0.14437 -6.640719,-1.29927 l -0.433092,-0.57746 -0.144363,-5.19709 v -5.05271 l -1.876725,-0.14437 c -2.021089,-0.14435 -2.309815,-0.14435 -2.88727,-0.72181 -0.288726,-0.4331 -0.288726,-0.57745 -0.288726,-1.15491 0,-0.57745 0,-0.72182 0.288726,-1.15491 0.577455,-0.57745 0.866181,-0.57745 2.88727,-0.72182 h 1.876725 v -13.57016 l -2.165452,-0.14436 c -1.587998,0 -2.021088,-0.14437 -2.309816,-0.28874 -1.154908,-0.86618 -1.154908,-2.30981 0,-3.176 0.288728,-0.14436 0.721818,-0.28872 2.309816,-0.28872 h 2.165452 v -13.28144 l -2.021088,-0.14436 c -1.587999,0 -2.021089,-0.14437 -2.309817,-0.28872 -1.154907,-0.86619 -1.154907,-2.30982 0,-3.17601 0.288728,-0.14437 0.721818,-0.28872 2.309817,-0.28872 h 2.021088 v -13.28143 l -2.021088,-0.14437 c -2.165452,-0.14437 -2.598543,-0.14437 -2.88727,-1.01055 -0.288726,-0.72181 -0.288726,-1.01055 0,-1.73236 0.288727,-0.86618 0.721818,-0.86618 2.88727,-1.01054 h 2.021088 v -13.57018 l -1.876725,-0.14436 c -2.021089,-0.14436 -2.45418,-0.28872 -2.742906,-1.01054 -0.288727,-0.72181 -0.288727,-1.01055 0,-1.73237 0.288726,-0.72181 0.721817,-0.86617 2.742906,-1.01054 h 1.876725 v -13.4258 l -1.732362,-0.14437 c -2.021088,-0.14436 -2.454178,-0.28872 -2.742906,-1.01053 -0.288727,-0.72182 -0.288727,-1.01056 0,-1.73237 0.288728,-0.72182 0.721818,-0.86618 2.598543,-1.01054 h 1.876725 V 99.813976 c 0,-7.651265 0.144363,-10.971624 0.288728,-11.26036 0.144363,-0.577452 1.010544,-1.299274 1.587998,-1.443635 1.154908,-0.433086 2.454179,0.288723 3.031633,1.299273 l 0.288727,0.721822 v 59.333384 l 0.144363,59.62212 59.62212,0.14436 h 59.333394 l 0.72181,0.28874 c 1.44364,0.72181 1.87673,2.59854 0.86618,3.89781 -1.01054,1.01054 -0.14436,0.86617 -12.12654,1.01054 l -10.82725,0.14436 -0.14438,2.16546 c -0.14435,2.30981 -0.14435,2.7429 -1.01053,3.03163 -0.72182,0.28872 -1.15491,0.28872 -1.73237,0 z m -76.801362,-54.42503 -10.971625,-6.352 c -0.577454,-0.57746 -0.721817,-1.01054 -0.721817,-2.02109 0,-1.588 1.010544,-2.59854 2.598542,-2.59854 0.721819,0 1.010545,0.14436 5.052722,2.45418 l 4.619632,2.45418 8.373083,-8.08436 c 4.475267,-4.61962 8.373081,-8.22871 8.517444,-8.37308 h 2.165453 l 5.485813,5.34146 5.34145,5.05272 4.3309,-4.04219 c 4.18654,-4.3309 4.475269,-4.47525 5.485816,-4.47525 0.577457,0 1.443635,0.43309 1.876725,1.01053 0.721817,0.72182 0.866186,1.73237 0.433097,2.7429 -0.144369,0.4331 -2.165455,2.59855 -5.485816,5.91891 -4.619636,4.61963 -5.485815,5.34145 -5.918912,5.48581 -0.577449,0.14437 -1.299267,0.14437 -1.87672,-0.28872 l -5.341449,-5.19709 -5.341448,-5.05272 c -0.288728,0 -3.031633,2.74291 -8.228718,7.79562 -5.197086,5.34146 -7.939992,7.94 -8.22872,8.08436 -0.721817,0.28873 -1.587998,0.28873 -2.165452,0.14437 z m 60.343942,-23.38688 -8.37309,-2.16547 c -0.28872,0 -0.57745,0.28874 -1.44363,1.15491 -1.443633,1.44364 -2.45418,1.87673 -3.753456,1.44364 -0.866177,-0.28873 -1.732356,-1.58799 -1.732356,-2.45417 0,-1.01055 0.288729,-1.44363 2.309815,-3.46474 l 2.598547,-2.45417 c 0.72181,-0.14436 1.58799,-0.14436 2.30981,0.14436 a 229.39358,229.39358 0 0 0 15.15816,4.18654 l 1.15491,-0.86618 c 1.44363,-1.29926 2.59855,-2.16545 3.176,-2.30982 1.58799,-0.57744 3.32036,1.01056 3.17599,2.74292 -0.14436,0.86618 -0.72181,1.58799 -2.88727,3.89782 -2.02109,2.02107 -2.45417,2.30981 -3.46472,2.30981 z m 17.32361,-8.37309 c -0.57745,-0.14436 -1.15491,-0.72182 -1.44365,-1.15491 v -2.16545 c 0.4331,-1.01054 1.73237,-1.73236 2.74292,-1.44363 1.1549,0.14435 2.16545,1.29926 2.16545,2.45418 0,0.72181 -0.57745,1.73235 -1.15491,2.16545 -0.72182,0.43309 -1.588,0.57745 -2.30981,0.14436 z m 6.49635,-6.35199 c -1.44363,-0.57746 -1.87672,-2.16546 -1.29926,-3.46473 0.14436,-0.43309 2.16545,-2.59854 6.06327,-6.49635 6.35198,-6.20764 6.49634,-6.352 7.65125,-6.20764 1.01056,0.28873 2.02109,1.29927 2.30981,2.30983 0.14437,1.15491 0,1.29926 -6.20763,7.65125 -3.89781,3.75346 -6.06326,5.91891 -6.49635,6.06327 -0.57744,0.28873 -1.44364,0.43309 -2.16545,0.14437 z"
       id="path12" />
    <text
       xml:space="preserve"
       style="font-style:normal;font-weight:normal;font-size:161.07836914px;line-height:1.25;font-family:sans-serif;letter-spacing:0px;word-spacing:0px;fill:#8c897c;fill-opacity:1;stroke:none;stroke-width:4.02695894;"
       x="-383.24323"
       y="208.60719"
       id="text12"><tspan
         sodipodi:role="line"
         id="tspan10"
         x="-383.24323"
         y="208.60719"
         style="fill:#8c897c;stroke-width:4.02695894;fill-opacity:1;">SAID</tspan></text>
    <text
       xml:space="preserve"
       style="font-style:normal;font-weight:normal;font-size:161.07836914px;line-height:1.25;font-family:sans-serif;letter-spacing:0px;word-spacing:0px;fill:#82a7af;fill-opacity:1;stroke:none;stroke-width:4.02695894;"
       x="-375.87369"
       y="216.19498"
       id="text12-3"><tspan
         sodipodi:role="line"
         id="tspan10-6"
         x="-375.87369"
         y="216.19498"
         style="fill:#82a7af;stroke-width:4.02695894;fill-opacity:1;">SAID</tspan></text>
  </g>
</svg>
